<?xml version="1.0"?>
<svg width="500" height="500" xmlns="http://www.w3.org/2000/svg" xmlns:svg="http://www.w3.org/2000/svg" version="1.2">
 <g class="layer">
  <title>Layer 1</title>
  <path class="s0" d="m499.1,92.39l0,315.63c0,50.51 -41.16,91.39 -91.55,91.39l-316.2,0c-50.39,0 -91.45,-41.08 -91.45,-91.39l0,-315.63c0,-50.51 40.96,-91.39 91.45,-91.39l316.2,0c50.39,0 91.55,40.98 91.55,91.39z" fill="#686868" id="svg_5"/>
  <g id="svg_1">
   <path d="m171.52,130.31l-29.08,33.72c-8.72,10.01 -13.73,22.8 -13.73,36.18l0,4.19c0,18.14 15.12,33.28 33.28,33.28l13.39,0c18.14,0 33.28,-15.12 33.28,-33.28c0,-18.26 -15.12,-33.38 -33.28,-33.38l-3.84,0l20,-23.27l-20,-17.45l-0.01,0l-0.01,0.01zm90.37,0.82l0,39.89l-13.25,0l0,-39.43l-26.64,0l0,66.18l39.89,0l0,39.89l26.64,0l0,-106.55l-26.64,0l0,0.01l0,0.01zm-105.73,66.66l19.2,0c3.72,0 6.64,2.79 6.64,6.64c0,3.72 -2.91,6.64 -6.64,6.64l-13.39,0c-3.84,0 -6.64,-2.91 -6.64,-6.64l0,-4.19c0,-0.92 0.7,-1.63 0.82,-2.45l0.01,0z" fill="#ffffff" id="path17" stroke-width="0.79"/>
   <path d="m69.48,112.5l0,275.01a43.02,43.02 45 0 0 43.02,43.02l275.01,0a43.02,43.02 135 0 0 43.02,-43.02l0,-275.01a43.02,43.02 45 0 0 -43.02,-43.02l-275.01,0a43.02,43.02 135 0 0 -43.02,43.02zm47.12,-10.19l266.68,0a14.3,14.3 45 0 1 14.3,14.3l0,266.68a14.3,14.3 135 0 1 -14.3,14.3l-266.68,0a14.3,14.3 45 0 1 -14.3,-14.3l0,-266.68a14.3,14.3 135 0 1 14.3,-14.3z" fill="#ffffff" id="path2941" stroke-width="0.79"/>
  </g>
  <g id="svg_2" transform="matrix(1 0 0 1 0 0)">
   <path d="m135.07,379l227.31,0c8.31,0 13.31,-6.51 11.14,-14.55l-36.12,-134.16c-2.16,-8.04 -5.75,-13.01 -7.99,-11.1s-6.33,9.81 -9.1,17.66l-29.51,83.37c-2.77,7.86 -8.94,8.71 -13.76,1.93l-25.86,-36.37c-4.83,-6.79 -12.79,-6.89 -17.79,-0.24l-27.72,36.84c-5.02,6.66 -14.08,7.54 -20.25,1.97l-9,-8.1c-6.18,-5.57 -14.75,-4.36 -19.15,2.7l-29.31,47.24c-4.39,7.07 -1.21,12.8 7.12,12.8l-0.01,0.01z" fill="#ffffff" id="svg_3"/>
  </g>
 </g>
</svg>