<?xml version="1.0"?>
<svg width="500" height="500" xmlns="http://www.w3.org/2000/svg" xmlns:svg="http://www.w3.org/2000/svg" version="1.2">
 <g class="layer">
  <title>Layer 1</title>
  <path class="s0" d="m499.1,92.39l0,315.63c0,50.51 -41.16,91.39 -91.55,91.39l-316.2,0c-50.39,0 -91.45,-41.08 -91.45,-91.39l0,-315.63c0,-50.51 40.96,-91.39 91.45,-91.39l316.2,0c50.39,0 91.55,40.98 91.55,91.39z" fill="#682fa0" id="svg_5"/>
  <g id="svg_1">
   <path d="m210.46,193.31l-31.08,36.05c-9.32,10.69 -14.67,24.37 -14.67,38.67l0,4.48c0,19.39 16.16,35.56 35.56,35.56l14.3,0c19.39,0 35.56,-16.16 35.56,-35.56c0,-19.52 -16.16,-35.68 -35.56,-35.68l-4.1,0l21.38,-24.87l-21.38,-18.65zm96.6,0.87l0,42.64l-14.17,0l0,-42.15l-28.47,0l0,70.74l42.64,0l0,42.64l28.47,0l0,-113.88l-28.47,0zm-113.01,71.24l20.51,0c3.98,0 7.09,2.98 7.09,7.09c0,3.98 -3.11,7.09 -7.09,7.09l-14.3,0c-4.1,0 -7.09,-3.11 -7.09,-7.09l0,-4.48c0,-0.99 0.75,-1.74 0.87,-2.61z" fill="#ffffff" id="path17" stroke-width="0.79"/>
   <path d="m69.48,112.5l0,275.01a43.02,43.02 45 0 0 43.02,43.02l275.01,0a43.02,43.02 135 0 0 43.02,-43.02l0,-275.01a43.02,43.02 45 0 0 -43.02,-43.02l-275.01,0a43.02,43.02 135 0 0 -43.02,43.02zm47.12,-10.19l266.68,0a14.3,14.3 45 0 1 14.3,14.3l0,266.68a14.3,14.3 135 0 1 -14.3,14.3l-266.68,0a14.3,14.3 45 0 1 -14.3,-14.3l0,-266.68a14.3,14.3 135 0 1 14.3,-14.3z" fill="#ffffff" id="path2941" stroke-width="0.79"/>
  </g>
 </g>
</svg>