<?xml version="1.0"?>
<svg width="500" height="500" xmlns="http://www.w3.org/2000/svg" xmlns:svg="http://www.w3.org/2000/svg" version="1.2">
 <g class="layer">
  <title>Layer 1</title>
  <path class="s0" d="m499.1,92.39l0,315.63c0,50.51 -41.16,91.39 -91.55,91.39l-316.2,0c-50.39,0 -91.45,-41.08 -91.45,-91.39l0,-315.63c0,-50.51 40.96,-91.39 91.45,-91.39l316.2,0c50.39,0 91.55,40.98 91.55,91.39z" fill="#682fa0" id="svg_5"/>
  <g id="svg_4">
   <path d="m250,188.35a145.74,145.74 0 0 1 117.13,-15.87c-7.42,-58.08 -57.12,-103.09 -117.13,-103.09s-109.72,45 -117.13,103.04a145.74,145.74 0 0 1 117.13,15.92z" fill="#ffffff" id="svg_6"/>
   <path d="m319.46,315.76a145.45,145.45 0 0 1 -45.47,102.53a117.22,117.22 0 0 0 52.42,12.32c65.12,0 118.09,-52.97 118.09,-118.09a118.09,118.09 0 0 0 -51.28,-97.32a146.34,146.34 0 0 1 -73.75,100.56z" fill="#ffffff" id="svg_7"/>
   <path d="m273.95,206.75a145.76,145.76 0 0 1 42.86,78.05a118.21,118.21 0 0 0 50.41,-83.1a117.98,117.98 0 0 0 -93.28,5.04l0.01,0z" fill="#ffffff" id="svg_8"/>
   <path d="m180.58,315.76a146.34,146.34 0 0 1 -73.81,-100.56a118.09,118.09 0 0 0 -51.27,97.32c0,65.12 52.97,118.09 118.09,118.09a117.22,117.22 0 0 0 52.46,-12.32a145.45,145.45 0 0 1 -45.47,-102.53z" fill="#ffffff" id="svg_9"/>
   <path d="m183.19,284.8a145.76,145.76 0 0 1 42.86,-78.05a117.98,117.98 0 0 0 -93.27,-5.04a118.21,118.21 0 0 0 50.41,83.1z" fill="#ffffff" id="svg_10"/>
   <path d="m290.72,327.57a146.07,146.07 0 0 1 -81.45,0a118,118 0 0 0 40.72,74.91a118,118 0 0 0 40.72,-74.91z" fill="#ffffff" id="svg_11"/>
   <path d="m209.19,298.3a118.09,118.09 0 0 0 81.62,0a118.03,118.03 0 0 0 -40.81,-75.73a118.03,118.03 0 0 0 -40.81,75.73z" fill="#ffffff" id="svg_12"/>
  </g>
 </g>
</svg>