<?xml version="1.0"?>
<svg width="500" height="500" xmlns="http://www.w3.org/2000/svg" xmlns:svg="http://www.w3.org/2000/svg" version="1.2">
 <g class="layer">
  <title>Layer 1</title>
  <path class="s0" d="m499.1,92.39l0,315.63c0,50.51 -41.16,91.39 -91.55,91.39l-316.2,0c-50.39,0 -91.45,-41.08 -91.45,-91.39l0,-315.63c0,-50.51 40.96,-91.39 91.45,-91.39l316.2,0c50.39,0 91.55,40.98 91.55,91.39z" fill="#682fa0" id="svg_8" stroke="#682fa0"/>
  <g id="svg_1">
   <g id="svg_2">
    <g id="svg_3">
     <path d="m410.59,76.27l-321.19,0c-12.1,0 -21.94,9.84 -21.94,21.94l0,287.77c0,12.09 9.84,21.93 21.94,21.93l321.19,0c12.1,0 21.94,-9.84 21.94,-21.93l0,-287.77c0,-12.1 -9.85,-21.94 -21.94,-21.94zm-66.15,36.84c0,-4.48 3.63,-8.1 8.1,-8.1l8.1,0c4.48,0 8.11,3.62 8.11,8.1l0,9.18c0,4.48 -3.63,8.1 -8.11,8.1l-8.1,0c-4.47,0 -8.1,-3.62 -8.1,-8.1l0,-9.18zm-37.67,0c0,-4.48 3.63,-8.1 8.11,-8.1l8.1,0c4.47,0 8.1,3.62 8.1,8.1l0,9.18c0,4.48 -3.63,8.1 -8.1,8.1l-8.1,0c-4.48,0 -8.11,-3.62 -8.11,-8.1l0,-9.18zm99.42,268.48l-312.41,0l0,-226.86l312.41,0l0,226.86l0,0zm0.21,-259.3c0,4.48 -3.62,8.1 -8.1,8.1l-8.1,0c-4.48,0 -8.1,-3.62 -8.1,-8.1l0,-9.18c0,-4.48 3.62,-8.1 8.1,-8.1l8.1,0c4.48,0 8.1,3.62 8.1,8.1l0,9.18z" fill="#ffffff" id="svg_4"/>
     <path d="m145.82,276.71l58.72,27.31c1.52,0.71 3.14,1.06 4.8,1.06c2.18,0 4.3,-0.62 6.14,-1.8c3.3,-2.1 5.28,-5.71 5.28,-9.62l0,-0.3c0,-4.42 -2.6,-8.49 -6.61,-10.35l-36.73,-17.06l36.73,-17.07c4.01,-1.86 6.61,-5.92 6.61,-10.34l0,-0.3c0,-3.92 -1.97,-7.52 -5.28,-9.63c-1.82,-1.16 -3.96,-1.78 -6.15,-1.78c-1.65,0 -3.31,0.36 -4.8,1.05l-58.72,27.3c-4,1.87 -6.6,5.93 -6.6,10.35l0,0.82c0,4.41 2.59,8.47 6.61,10.34l0,0.02z" fill="#ffffff" id="svg_5"/>
     <path d="m221.29,332.34c2.14,2.93 5.59,4.68 9.22,4.68l0.29,0c4.99,0 9.35,-3.19 10.87,-7.93l38.68,-119.86c1.11,-3.46 0.49,-7.28 -1.65,-10.22c-2.14,-2.93 -5.59,-4.68 -9.22,-4.68l-0.3,0c-4.98,0 -9.36,3.19 -10.87,7.93l-38.69,119.87c-1.1,3.46 -0.47,7.28 1.67,10.21z" fill="#ffffff" id="svg_6"/>
     <path d="m279.21,238.55c0,4.41 2.59,8.48 6.61,10.35l36.72,17.06l-36.72,17.06c-4.01,1.86 -6.61,5.93 -6.61,10.35l0,0.3c0,3.91 1.97,7.51 5.28,9.62c1.83,1.17 3.96,1.8 6.13,1.8c1.68,0 3.29,-0.35 4.81,-1.06l58.72,-27.31c4.01,-1.87 6.6,-5.93 6.6,-10.34l0,-0.82c0,-4.42 -2.59,-8.48 -6.6,-10.35l-58.72,-27.3c-1.48,-0.69 -3.14,-1.05 -4.79,-1.05c-2.2,0 -4.33,0.61 -6.15,1.78c-3.3,2.1 -5.28,5.71 -5.28,9.63l0,0.29l0,0l0,0.01l0,-0.02z" fill="#ffffff" id="svg_7"/>
    </g>
   </g>
  </g>
 </g>
</svg>