<?xml version="1.0"?>
<svg width="500" height="500" xmlns="http://www.w3.org/2000/svg" xmlns:svg="http://www.w3.org/2000/svg" version="1.2">
 <g class="layer">
  <title>Layer 1</title>
  <path class="s0" d="m498.1,92.39l0,315.63c0,50.51 -41.16,91.39 -91.55,91.39l-316.2,0c-50.39,0 -91.45,-41.08 -91.45,-91.39l0,-315.63c0,-50.51 40.96,-91.39 91.45,-91.39l316.2,0c50.39,0 91.55,40.98 91.55,91.39z" fill="#682fa0" id="svg_11"/>
  <g id="svg_1">
   <path d="m115.59,294.83c0,6 4.87,10.87 10.87,10.87s10.87,-4.87 10.87,-10.87l0,-84.93c0,-4.4 -2.63,-8.36 -6.7,-10.04c-4.05,-1.68 -8.72,-0.75 -11.84,2.36l-27.52,27.52c-4.24,4.24 -4.24,11.13 0,15.37c4.24,4.23 11.13,4.23 15.36,0l8.99,-9l0,58.71l-0.02,0z" fill="#ffffff" id="svg_2"/>
   <path d="m179.78,106.66l8.99,-8.99l0,58.71c0,6 4.87,10.87 10.87,10.87s10.87,-4.87 10.87,-10.87l0,-84.93c0,-4.38 -2.65,-8.36 -6.7,-10.04c-4.05,-1.68 -8.74,-0.75 -11.84,2.36l-27.54,27.52c-4.24,4.24 -4.24,11.13 0,15.37c4.24,4.24 11.13,4.24 15.37,0l-0.02,-0.02z" fill="#ffffff" id="svg_3"/>
   <path d="m303.68,199.85c-4.05,-1.68 -8.72,-0.75 -11.84,2.36l-27.52,27.52c-4.24,4.24 -4.24,11.13 0,15.37c4.24,4.24 11.13,4.24 15.36,0l8.99,-8.99l0,58.71c0,6 4.87,10.87 10.87,10.87s10.87,-4.87 10.87,-10.87l0,-84.93c0,-4.38 -2.63,-8.36 -6.7,-10.04l-0.02,-0.02z" fill="#ffffff" id="svg_4"/>
   <path d="m256.48,333.56c-4.05,-1.68 -8.74,-0.74 -11.85,2.36l-27.52,27.52c-4.24,4.24 -4.24,11.13 0,15.37c4.24,4.24 11.13,4.24 15.37,0l8.99,-8.99l0,32.16c0,6 4.85,10.87 10.87,10.87s10.87,-4.87 10.87,-10.87l0,-58.4c0,-4.38 -2.65,-8.34 -6.7,-10.04l-0.02,0z" fill="#ffffff" id="svg_5"/>
   <path d="m238.05,268.34l0,-31.97c0,-20.6 -16.75,-37.36 -37.34,-37.36l-0.53,0c-20.59,0 -37.36,16.75 -37.36,37.36l0,31.97c0,20.59 16.77,37.36 37.36,37.36l0.53,0c20.59,0 37.34,-16.77 37.34,-37.36zm-21.73,0c0,8.61 -7,15.62 -15.61,15.62l-0.53,0c-8.61,0 -15.62,-7.01 -15.62,-15.62l0,-31.97c0,-8.63 7.01,-15.62 15.62,-15.62l0.53,0c8.61,0 15.61,7 15.61,15.62l0,31.97z" fill="#ffffff" id="svg_6"/>
   <path d="m374.59,199.03l-0.53,0c-20.6,0 -37.36,16.75 -37.36,37.34l0,31.99c0,20.59 16.75,37.36 37.36,37.36l0.53,0c20.59,0 37.34,-16.77 37.34,-37.36l0,-31.97c0,-20.6 -16.75,-37.36 -37.34,-37.36zm15.61,69.33c0,8.61 -7,15.62 -15.62,15.62l-0.52,0c-8.63,0 -15.62,-7.01 -15.62,-15.62l0,-31.97c0,-8.63 7,-15.62 15.62,-15.62l0.52,0c8.63,0 15.62,7 15.62,15.62l0,31.97z" fill="#ffffff" id="svg_7"/>
   <path d="m273.85,60.57l-0.53,0c-20.59,0 -37.34,16.75 -37.34,37.36l0,31.97c0,20.59 16.75,37.36 37.34,37.36l0.53,0c6.01,0 10.87,-4.87 10.87,-10.87s-4.85,-10.87 -10.87,-10.87l-0.53,0c-8.61,0 -15.61,-7.01 -15.61,-15.62l0,-31.97c0,-8.63 7,-15.62 15.61,-15.62l0.53,0c8.63,0 15.62,7 15.62,15.62c0,6 4.87,10.87 10.87,10.87s10.87,-4.87 10.87,-10.87c0,-20.6 -16.75,-37.36 -37.36,-37.36z" fill="#ffffff" id="svg_8"/>
   <path d="m374.59,60.57l-0.53,0c-20.6,0 -37.36,16.75 -37.36,37.36l0,31.97c0,20.59 16.75,37.36 37.36,37.36l0.53,0c20.59,0 37.34,-16.77 37.34,-37.36l0,-31.97c0,-20.6 -16.75,-37.36 -37.34,-37.36zm15.61,69.33c0,8.61 -7,15.62 -15.62,15.62l-0.52,0c-8.63,0 -15.62,-7.01 -15.62,-15.62l0,-31.97c0,-8.63 7,-15.62 15.62,-15.62l0.52,0c8.63,0 15.62,7 15.62,15.62l0,31.97z" fill="#ffffff" id="svg_9"/>
   <path d="m149.94,332.75l-0.53,0c-20.59,0 -37.34,16.77 -37.34,37.36l0,31.97c0,20.6 16.75,37.36 37.34,37.36l0.53,0c20.59,0 37.36,-16.75 37.36,-37.36l0,-31.97c0,-20.59 -16.75,-37.36 -37.36,-37.36zm15.62,69.33c0,8.63 -7,15.62 -15.62,15.62l-0.53,0c-8.61,0 -15.61,-7 -15.61,-15.62l0,-31.97c0,-8.61 7,-15.62 15.61,-15.62l0.53,0c8.63,0 15.62,7.01 15.62,15.62l0,31.97z" fill="#ffffff" id="svg_10"/>
  </g>
 </g>
</svg>