<?xml version="1.0"?>
<svg width="500" height="500" xmlns="http://www.w3.org/2000/svg" xmlns:svg="http://www.w3.org/2000/svg" version="1.2">
 <title>ic_fluent_fingerprint_24_regular</title>
 <desc>Created with Sketch.</desc>
 <g class="layer">
  <title>Layer 1</title>
  <path class="s0" d="m499.1,92.39l0,315.63c0,50.51 -41.16,91.39 -91.55,91.39l-316.2,0c-50.39,0 -91.45,-41.08 -91.45,-91.39l0,-315.63c0,-50.51 40.96,-91.39 91.45,-91.39l316.2,0c50.39,0 91.55,40.98 91.55,91.39z" fill="#682fa0" id="svg_5"/>
  <path d="m302.06,251.27c11.12,11.31 17.25,25.3 21.85,44.46l1.92,9.01l0,0l3.45,18.97c1.72,8.62 3.26,13.8 5.17,18.02c5.94,13.22 16.48,27.02 31.62,41.01c6.13,5.56 6.52,14.95 1.15,21.08c-5.56,6.13 -14.95,6.52 -21.08,1.15c-18.02,-16.48 -31.05,-33.54 -38.71,-50.98c-3.07,-6.71 -4.79,-12.84 -6.9,-23.57l-4.22,-21.85l0,0l-0.19,-1.15c-3.45,-17.06 -8.05,-27.6 -15.52,-35.07c-14.18,-14.57 -46.76,-10.73 -55.58,3.07c-11.12,17.63 -14.18,47.72 -5.17,78c6.71,23.38 15.91,46.38 27.21,68.99c3.64,7.47 0.77,16.29 -6.52,19.74c-7.47,3.64 -16.29,0.77 -20.12,-6.52c-12.27,-24.15 -21.85,-49.06 -29.13,-73.98c-11.12,-37.95 -7.67,-76.85 8.43,-102.15c18.97,-29.9 74.36,-36.41 102.15,-8.05l0.19,-0.19zm-46.95,46c8.24,-0.19 14.95,6.13 15.52,14.57c1.15,30.66 10.92,60.56 28.75,85.48l3.83,5.37l5.94,7.86c4.98,6.52 3.64,15.91 -2.87,20.89c-5.94,4.6 -14.18,3.83 -19.55,-1.15l-1.34,-1.72l-5.94,-7.86c-23.96,-31.05 -37.56,-68.8 -38.71,-107.9c-0.38,-8.24 6.13,-14.95 14.37,-15.52l0,0.19l0,-0.19zm-73.79,-101c41.97,-31.05 97.17,-29.32 134.15,-5.56c18.59,11.69 32.39,25.68 41.78,41.59c4.22,7.09 1.72,16.29 -5.37,20.51c-7.09,4.22 -16.29,1.72 -20.51,-5.37c-6.71,-11.5 -17.25,-22.23 -32.2,-31.62c-27.02,-17.44 -68.61,-18.78 -99.85,4.6c-32.58,24.15 -46.38,65.35 -42.35,108.86c2.3,24.15 9.77,49.25 22.23,73.98c3.45,7.47 0.57,16.29 -6.71,20.12c-7.47,3.45 -16.29,0.57 -20.12,-6.71c-13.99,-28.36 -22.42,-56.15 -25.11,-84.52c-4.98,-53.09 12.27,-104.45 54.05,-135.88l-0.19,-0.19l0.19,0.19zm182.45,85.48c8.24,-0.38 15.33,5.94 15.72,14.18c0.57,12.27 3.45,21.85 8.62,29.51c4.41,6.71 8.24,10.54 11.31,11.88l1.15,0.57c7.86,2.3 12.46,10.73 9.97,18.59c-2.3,8.05 -10.73,12.46 -18.78,10.16c-10.73,-3.45 -20.12,-11.69 -28.75,-24.53c-8.24,-12.65 -12.65,-27.41 -13.8,-44.65c-0.38,-8.05 5.94,-15.33 14.18,-15.72l0.19,0.19l0.19,-0.19zm-147.95,-150.83c3.45,7.67 0,16.29 -7.67,19.55c-36.61,16.48 -63.44,40.05 -81.26,70.53c-22.04,38.33 -28.17,83.18 -23,120.74c1.15,8.05 -4.79,15.72 -12.84,16.67c-8.05,1.15 -15.72,-4.6 -16.67,-12.65c-5.75,-43.7 1.15,-95.06 26.83,-139.71c20.89,-36.22 52.7,-63.82 94.87,-82.79c7.67,-3.45 16.29,-0.19 19.55,7.47l0,0.19l0.19,0zm46.57,-15.72c36.41,0.77 72.64,17.44 108.67,49.45c36.41,32.2 58.07,76.28 65.54,130.9c1.15,8.05 -4.6,15.72 -12.84,17.06c-8.05,1.15 -15.52,-4.79 -16.67,-12.84c-6.52,-47.91 -25.11,-85.09 -55.77,-112.5c-31.05,-27.6 -60.75,-41.4 -89.5,-41.97c-8.05,0 -14.76,-6.9 -14.57,-14.95c0.19,-8.05 6.9,-14.76 14.95,-14.76l0,-0.38l0.19,0zm-136.45,0.38c5.56,6.13 4.98,15.52 -1.15,21.08c-5.37,4.79 -10.92,10.35 -16.67,17.06c-5.56,6.13 -11.12,14.37 -17.06,24.15c-4.22,6.9 -13.03,9.58 -20.31,5.37c-7.09,-4.22 -9.58,-13.22 -5.56,-20.31c6.71,-11.5 13.42,-21.27 20.51,-28.94c6.52,-7.67 12.84,-13.99 19.16,-19.55c6.13,-5.56 15.72,-4.98 21.08,1.15zm131.09,-59.03c43.5,2.11 80.11,14.18 110.01,36.99c6.52,5.17 7.86,14.57 2.68,21.08c-4.98,6.32 -14.37,7.67 -20.89,2.68c-24.53,-19.16 -55.39,-28.94 -92.95,-30.86c-37.95,-1.72 -68.8,5.75 -93.91,19.55c-7.67,4.22 -16.1,2.11 -20.51,-4.98c-4.22,-6.9 -2.3,-16.1 4.98,-20.51c30.47,-17.82 67.27,-25.87 110.77,-23.96l-0.19,0z" fill="#ffffff" id="🎨Color"/>
 </g>
</svg>