<?xml version="1.0"?>
<svg width="500" height="500" xmlns="http://www.w3.org/2000/svg" xmlns:svg="http://www.w3.org/2000/svg" version="1.2">
 <!-- Uploaded to SVGRepo https://www.svgrepo.com -->
 <title>ic_fluent_code_24_filled</title>
 <desc>Created with Sketch.</desc>
 <g class="layer">
  <title>Layer 1</title>
  <path class="s0" d="m499.1,92.39l0,315.63c0,50.51 -41.16,91.39 -91.55,91.39l-316.2,0c-50.39,0 -91.45,-41.08 -91.45,-91.39l0,-315.63c0,-50.51 40.96,-91.39 91.45,-91.39l316.2,0c50.39,0 91.55,40.98 91.55,91.39z" fill="#682fa0" id="svg_5"/>
  <g fill="none" fill-rule="evenodd" id="ðŸ”-Product-Icons">
   <g fill="#212121" fill-rule="nonzero" id="ic_fluent_code_24_filled">
    <path d="m178.39,371l109.71,-256.4c3.9,-9.25 14.79,-13.76 24.04,-9.66c8.84,3.7 13.15,13.15 10.48,21.99l-0.62,2.05l-109.92,256.6c-3.7,9.25 -14.59,13.56 -24.04,9.45c-8.63,-3.7 -13.15,-13.15 -10.27,-21.99l0.62,-2.05l109.71,-256.4l-109.71,256.4l0,0.01zm-106.21,-134.15l73.35,-73.35c7.2,-7.2 18.91,-7.2 25.89,0c6.58,6.58 7.2,17.05 1.64,24.24l-1.64,1.85l-60.4,60.2l60.4,60.2c7.2,7.2 7.2,18.91 0,25.89c-6.58,6.58 -17.05,7.2 -24.24,1.64l-1.85,-1.64l-73.35,-73.35c-6.58,-6.58 -7.2,-17.05 -1.64,-24.24l1.64,-1.85l73.35,-73.35l-73.35,73.35l0.21,0.21l0,0.21l-0.01,-0.01zm256.4,-73.35c6.58,-6.58 17.05,-7.2 24.24,-1.64l1.85,1.64l73.35,73.35c6.58,6.58 7.2,17.05 1.64,24.24l-1.64,1.85l-73.35,73.14c-7.2,7.2 -18.91,7.2 -25.89,0c-6.58,-6.58 -7.2,-17.05 -1.64,-24.24l1.64,-1.64l60.4,-60.2l-60.4,-60.2c-7.2,-7.2 -7.2,-18.91 0,-25.89l-0.21,-0.21l0,-0.21l0.01,0.01z" fill="#ffffff" id="ðŸŽ¨-Color"/>
   </g>
  </g>
 </g>
</svg>