<?xml version="1.0"?>
<svg width="500" height="500" xmlns="http://www.w3.org/2000/svg" xmlns:svg="http://www.w3.org/2000/svg" version="1.2">
 <title>file_type_light_json5</title>
 <g class="layer">
  <title>Layer 1</title>
  <path class="s0" d="m499.1,92.39l0,315.63c0,50.51 -41.16,91.39 -91.55,91.39l-316.2,0c-50.39,0 -91.45,-41.08 -91.45,-91.39l0,-315.63c0,-50.51 40.96,-91.39 91.45,-91.39l316.2,0c50.39,0 91.55,40.98 91.55,91.39z" fill="#682fa0" id="svg_1" stroke="#682fa0"/>
  <g id="svg_12">
   <path d="m143.36,394.72a85.58,85.58 0 0 1 -25.39,-11.15a61.55,61.55 0 0 1 -16.22,-15.73a57.96,57.96 0 0 1 -8.79,-19.44a93.88,93.88 0 0 1 -2.48,-21.92l0,-29.85a44.21,44.21 0 0 0 -1.49,-11.89a22.66,22.66 0 0 0 -4.21,-9.04a18.7,18.7 0 0 0 -7.31,-5.82a25.39,25.39 0 0 0 -10.78,-2.11l0,-33.32a20.56,20.56 0 0 0 18.08,-7.68a35.42,35.42 0 0 0 5.82,-21.18l0,-29.85a93.88,93.88 0 0 1 2.48,-21.92a58.46,58.46 0 0 1 8.79,-19.44a60.93,60.93 0 0 1 16.22,-15.61a86.2,86.2 0 0 1 25.27,-11.15l9.29,25.76a23.53,23.53 0 0 0 -9.41,6.32a33.44,33.44 0 0 0 -5.82,9.66a48.55,48.55 0 0 0 -3.1,12.26a112.21,112.21 0 0 0 -0.99,14.24l0,29.85a54.62,54.62 0 0 1 -6.32,26.5a45.58,45.58 0 0 1 -20.81,18.83a45.45,45.45 0 0 1 20.81,19.2a54.12,54.12 0 0 1 6.32,26.38l0,29.85a112.21,112.21 0 0 0 0.99,14.24a49.79,49.79 0 0 0 3.1,12.14a32.33,32.33 0 0 0 5.82,9.66a23.53,23.53 0 0 0 9.41,6.32c0,0 -9.29,25.76 -9.29,25.76" fill="#ffffff" id="svg_2"/>
   <path d="m186.09,318.68a24.77,24.77 0 0 1 1.98,-9.78a23.28,23.28 0 0 1 5.82,-7.68a26.38,26.38 0 0 1 8.42,-5.2a31.58,31.58 0 0 1 11.15,-1.98a29.97,29.97 0 0 1 11.15,1.98a24.4,24.4 0 0 1 8.67,5.2a20.81,20.81 0 0 1 5.57,7.68a24.77,24.77 0 0 1 0,19.82a22.17,22.17 0 0 1 -5.57,7.93a26.75,26.75 0 0 1 -8.67,5.2a30.96,30.96 0 0 1 -11.02,1.98a30.34,30.34 0 0 1 -11.15,-1.98a27.12,27.12 0 0 1 -8.67,-5.2a23.66,23.66 0 0 1 -7.55,-17.83m0,-117.16a24.77,24.77 0 0 1 1.98,-9.78a23.28,23.28 0 0 1 5.57,-7.68a26.38,26.38 0 0 1 8.42,-5.2a31.58,31.58 0 0 1 11.15,-1.98a29.97,29.97 0 0 1 11.15,1.98a24.4,24.4 0 0 1 8.67,5.2a20.81,20.81 0 0 1 5.57,7.68a24.77,24.77 0 0 1 0,19.82a22.17,22.17 0 0 1 -5.57,7.93a26.75,26.75 0 0 1 -8.67,5.2a30.96,30.96 0 0 1 -11.02,1.98a30.34,30.34 0 0 1 -11.15,-1.98a27.12,27.12 0 0 1 -8.67,-5.2a23.66,23.66 0 0 1 -7.55,-17.71" fill="#ffffff" id="svg_3"/>
   <path d="m322.33,332.55a70.22,70.22 0 0 1 -2.35,17.83a87.19,87.19 0 0 1 -6.56,17.09a90.66,90.66 0 0 1 -9.66,15.61a76.91,76.91 0 0 1 -11.77,12.76l-25.02,-11.77c1.49,-3.22 3.22,-6.56 4.95,-10.03a93.38,93.38 0 0 0 5.2,-10.78a85.46,85.46 0 0 0 4.09,-12.76a65.64,65.64 0 0 0 1.49,-15.36l0,-34.06l39.63,0l-0.25,31.33" fill="#ffffff" id="svg_4"/>
   <path d="m347.35,365.24a24.03,24.03 0 0 0 9.41,-6.19a32.94,32.94 0 0 0 5.82,-9.66a48.55,48.55 0 0 0 3.1,-12.26a112.21,112.21 0 0 0 0.99,-14.24l0,-29.85a54.62,54.62 0 0 1 6.32,-26.5a45.45,45.45 0 0 1 20.93,-18.83a45.45,45.45 0 0 1 -20.93,-19.07a54.62,54.62 0 0 1 -6.32,-26.5l0,-29.85a112.21,112.21 0 0 0 -0.99,-14.24a49.79,49.79 0 0 0 -3.1,-12.14a32.33,32.33 0 0 0 -5.82,-9.66a23.53,23.53 0 0 0 -9.41,-6.32l9.29,-25.76a85.58,85.58 0 0 1 25.27,11.15a59.45,59.45 0 0 1 16.35,15.61a55.61,55.61 0 0 1 8.67,19.44a88.68,88.68 0 0 1 2.72,22.17l0,29.85a51.15,51.15 0 0 0 1.11,11.89a27.87,27.87 0 0 0 4.46,9.29a20.06,20.06 0 0 0 7.31,5.82a26.5,26.5 0 0 0 10.78,1.98l0,33.32a20.81,20.81 0 0 0 -18.08,7.93a35.17,35.17 0 0 0 -5.57,20.93l0,29.85a88.68,88.68 0 0 1 -2.72,21.92a56.23,56.23 0 0 1 -8.67,19.44a60.81,60.81 0 0 1 -16.35,15.73a86.2,86.2 0 0 1 -25.27,11.15l-9.29,-26.01" fill="#ffffff" id="svg_5"/>
  </g>
  <g id="svg_6">
   <path d="m472,386c0,47.44 -38.56,86 -86,86s-86,-38.56 -86,-86s38.56,-86 86,-86s86,38.56 86,86z" fill="#82CC00" id="svg_7"/>
   <path d="m386,300c47.44,0 86,38.56 86,86s-38.56,86 -86,86" fill="#3EB500" id="svg_8"/>
   <path d="m325.25,325.25c33.57,-33.57 87.94,-33.57 121.51,0s33.57,87.94 0,121.51" fill="#5FBF02" id="svg_9"/>
   <path d="m384.61,415.68c-1.11,0 -1.94,-0.28 -2.77,-1.11l-25.25,-25.25c-1.66,-1.66 -1.66,-4.16 0,-5.83s4.16,-1.66 5.83,0l22.47,22.47l42.72,-43c1.66,-1.66 4.16,-1.66 5.83,0s1.66,4.16 0,5.83l-46.05,45.77c-0.83,0.83 -1.94,1.11 -2.77,1.11l-0.01,0.01z" fill="#EEFFFF" id="svg_10"/>
  </g>
  <g id="svg_11">
   <path d="m472,386c0,47.44 -38.56,86 -86,86s-86,-38.56 -86,-86s38.56,-86 86,-86s86,38.56 86,86z" fill="#B5092B" id="svg_13"/>
   <path d="m386,300c47.44,0 86,38.56 86,86s-38.56,86 -86,86" fill="#890027" id="svg_14"/>
   <path d="m325.25,325.25c33.57,-33.57 87.94,-33.57 121.51,0s33.57,87.94 0,121.51" fill="#9B0025" id="svg_15"/>
   <path d="m411.52,415.68c-1.11,0 -1.94,-0.28 -2.77,-1.11l-51.32,-51.32c-1.66,-1.66 -1.66,-4.16 0,-5.83s4.16,-1.66 5.83,0l51.32,51.32c1.66,1.66 1.66,4.16 0,5.83c-0.83,0.83 -1.94,1.11 -3.05,1.11z" fill="#EEFFFF" id="svg_16"/>
   <path d="m360.48,415.68c-1.11,0 -1.94,-0.28 -2.77,-1.11c-1.66,-1.66 -1.66,-4.16 0,-5.83l51.32,-51.32c1.66,-1.66 4.16,-1.66 5.83,0s1.66,4.16 0,5.83l-51.6,51.32c-0.83,0.83 -1.94,1.11 -2.77,1.11z" fill="#EEFFFF" id="svg_17"/>
  </g>
 </g>
</svg>