<?xml version="1.0"?>
<svg width="500" height="500" xmlns="http://www.w3.org/2000/svg" xmlns:svg="http://www.w3.org/2000/svg" version="1.2">
 <title>JSON Web Tokens icon</title>
 <g class="layer">
  <title>Layer 1</title>
  <path class="s0" d="m499.1,92.39l0,315.63c0,50.51 -41.16,91.39 -91.55,91.39l-316.2,0c-50.39,0 -91.45,-41.08 -91.45,-91.39l0,-315.63c0,-50.51 40.96,-91.39 91.45,-91.39l316.2,0c50.39,0 91.55,40.98 91.55,91.39z" fill="#686868" id="svg_5"/>
  <path d="m223.26,71.72l0,95.97l26.74,36.7l26.74,-36.7l0,-95.97l-53.48,0zm53.48,95.97l0,45.61l43.08,-14.26l56.75,-77.4l-43.53,-31.79l-56.31,77.85l0.01,-0.01zm43.08,31.35l-26.74,36.99l43.53,13.97l91.37,-29.56l-16.79,-50.96l-91.37,29.56zm16.79,50.96l-43.53,13.97l26.74,36.99l91.37,29.56l16.79,-50.96l-91.37,-29.56zm-16.79,50.96l-43.08,-14.26l0,45.61l56.31,77.85l43.53,-31.79l-56.75,-77.4l-0.01,-0.01zm-43.08,31.35l-26.74,-36.7l-26.74,36.7l0,95.97l53.48,0l0,-95.97zm-53.48,0l0,-45.61l-43.08,14.26l-56.75,77.4l43.53,31.79l56.31,-77.85l-0.01,0.01zm-43.08,-31.35l26.74,-36.99l-43.53,-13.97l-91.37,29.56l16.79,50.96l91.37,-29.56zm-16.79,-50.96l43.53,-13.97l-26.74,-36.99l-91.37,-29.56l-16.79,50.96l91.37,29.56zm16.79,-50.96l43.08,14.26l0,-45.61l-56.31,-77.85l-43.53,31.79l56.75,77.4l0.01,0.01z" fill="#ffffff" id="svg_1"/>
 </g>
</svg>