<?xml version="1.0"?>
<svg width="499.99999999999994" height="499.99999999999994" xmlns="http://www.w3.org/2000/svg" xmlns:svg="http://www.w3.org/2000/svg" version="1.2">

 <g class="layer">
  <title>Layer 1</title>
  <path class="s0" d="m499.1,92.39l0,315.63c0,50.51 -41.16,91.39 -91.55,91.39l-316.2,0c-50.39,0 -91.45,-41.08 -91.45,-91.39l0,-315.63c0,-50.51 40.96,-91.39 91.45,-91.39l316.2,0c50.39,0 91.55,40.98 91.55,91.39z" fill="#682fa0" id="svg_1" stroke="#682fa0"/>
  <g id="svg_2">
   <path d="m276.36,418.07l-164.48,0l0,-321.9l37.19,0l0,287.84l127.29,0l0,34.06z" fill="#ffffff" id="path13981"/>
   <path d="m338.71,129.77q-9.76,0 -16.62,-6.66q-6.86,-6.81 -6.86,-17.19q0,-10.22 6.86,-17.03q6.86,-6.97 16.62,-6.97q9.91,0 16.77,6.97q7.01,6.81 7.01,17.03q0,9.91 -7.01,16.88q-6.86,6.97 -16.77,6.97zm17.68,288.3l-36.28,0l0,-229.93l36.28,0l0,229.93z" fill="#ffffff" id="path13983"/>
  </g>
 </g>
</svg>