<?xml version="1.0"?>
<svg width="500" height="500" xmlns="http://www.w3.org/2000/svg" xmlns:svg="http://www.w3.org/2000/svg" version="1.2">
 <g class="layer">
  <title>Layer 1</title>
  <path class="s0" d="m499.1,92.39l0,315.63c0,50.51 -41.16,91.39 -91.55,91.39l-316.2,0c-50.39,0 -91.45,-41.08 -91.45,-91.39l0,-315.63c0,-50.51 40.96,-91.39 91.45,-91.39l316.2,0c50.39,0 91.55,40.98 91.55,91.39z" fill="#686868" id="svg_5"/>
  <g id="svg_1">
   <path d="m69.48,112.5l0,275.01a43.02,43.02 45 0 0 43.02,43.02l275.01,0a43.02,43.02 135 0 0 43.02,-43.02l0,-275.01a43.02,43.02 45 0 0 -43.02,-43.02l-275.01,0a43.02,43.02 135 0 0 -43.02,43.02zm47.12,-10.19l266.68,0a14.3,14.3 45 0 1 14.3,14.3l0,266.68a14.3,14.3 135 0 1 -14.3,14.3l-266.68,0a14.3,14.3 45 0 1 -14.3,-14.3l0,-266.68a14.3,14.3 135 0 1 14.3,-14.3z" fill="#ffffff" id="path2941" stroke-width="0.79"/>
  </g>
 </g>
 <g class="layer">
  <title>Layer 2</title>
  <path d="m333.64,222.58c1.02,0 1.86,-0.84 1.86,-1.86l0,-13.94c0,-1.02 -0.84,-1.86 -1.86,-1.86l-38.1,0l0,-38.57c0,-1.02 -0.84,-1.86 -1.86,-1.86l-14.87,0c-1.02,0 -1.86,0.84 -1.86,1.86l0,38.57l-52.97,0l0,-38.57c0,-1.02 -0.84,-1.86 -1.86,-1.86l-14.87,0c-1.02,0 -1.86,0.84 -1.86,1.86l0,38.57l-39.03,0c-1.02,0 -1.86,0.84 -1.86,1.86l0,13.94c0,1.02 0.84,1.86 1.86,1.86l39.03,0l0,54.83l-39.03,0c-1.02,0 -1.86,0.84 -1.86,1.86l0,13.94c0,1.02 0.84,1.86 1.86,1.86l39.03,0l0,38.57c0,1.02 0.84,1.86 1.86,1.86l14.87,0c1.02,0 1.86,-0.84 1.86,-1.86l0,-38.57l52.97,0l0,38.57c0,1.02 0.84,1.86 1.86,1.86l14.87,0c1.02,0 1.86,-0.84 1.86,-1.86l0,-38.57l38.1,0c1.02,0 1.86,-0.84 1.86,-1.86l0,-13.94c0,-1.02 -0.84,-1.86 -1.86,-1.86l-38.1,0l0,-54.83l38.1,0zm-56.69,54.83l-52.97,0l0,-54.83l52.97,0l0,54.83z" fill="#ffffff" id="svg_2"/>
 </g>
</svg>