<?xml version="1.0"?>
<svg width="500" height="500" xmlns="http://www.w3.org/2000/svg" xmlns:svg="http://www.w3.org/2000/svg" version="1.2">
 <title>qrcode-svg</title>
 <g class="layer">
  <title>Layer 1</title>
  <g class="layer" id="svg_2">
   <path class="s0" d="m499.1,92.39l0,315.63c0,50.51 -41.16,91.39 -91.55,91.39l-316.2,0c-50.39,0 -91.45,-41.08 -91.45,-91.39l0,-315.63c0,-50.51 40.96,-91.39 91.45,-91.39l316.2,0c50.39,0 91.55,40.98 91.55,91.39z" fill="#682fa0" id="svg_5"/>
   <g id="svg_1">
    <g id="svg_19">
     <path d="m215.03,113.64c0,-13.93 -11.31,-25.24 -25.24,-25.24l-75.64,0c-13.93,0 -25.24,11.31 -25.24,25.24l0,75.64c0,13.93 11.31,25.24 25.24,25.24l75.64,0c13.93,0 25.24,-11.31 25.24,-25.24l0,-75.64l0,0zm-22.68,75.2c0,1.68 -1.31,2.99 -2.99,2.99l-75.27,0c-1.68,0 -3.06,-1.31 -3.06,-2.99l0,-75.35c0,-1.6 1.39,-2.99 3.06,-2.99l75.27,0c1.68,0 2.99,1.39 2.99,2.99l0,75.35l0,0z" fill="#ffffff" id="svg_3"/>
     <rect fill="#ffffff" height="48.37" id="svg_4" width="48.37" x="127.51" y="127"/>
     <path d="m215.03,310.72c0,-13.93 -11.31,-25.24 -25.24,-25.24l-75.64,0c-13.93,0 -25.24,11.31 -25.24,25.24l0,75.64c0,13.93 11.31,25.24 25.24,25.24l75.64,0c13.93,0 25.24,-11.31 25.24,-25.24l0,-75.64l0,0zm-22.68,75.64c0,1.6 -1.24,3.14 -2.84,3.14l-75.49,0c-1.68,0 -2.99,-1.53 -2.99,-3.14l0,-75.49c0,-1.68 1.31,-3.21 2.99,-3.21l75.49,0c1.6,0 2.84,1.53 2.84,3.21l0,75.49l0,0z" fill="#ffffff" id="svg_6"/>
     <rect fill="#ffffff" height="48.89" id="svg_7" width="48.37" x="127.51" y="324.1"/>
     <path d="m411.08,113.64c0,-13.93 -11.31,-25.24 -25.24,-25.24l-75.64,0c-13.93,0 -25.24,11.31 -25.24,25.24l0,75.64c0,13.93 11.31,25.24 25.24,25.24l75.64,0c13.93,0 25.24,-11.31 25.24,-25.24l0,-75.64zm-22.68,75.2c0,1.68 -1.31,2.99 -2.99,2.99l-75.27,0c-1.68,0 -2.99,-1.31 -2.99,-2.99l0,-75.35c0,-1.6 1.31,-2.99 2.99,-2.99l75.27,0c1.68,0 2.99,1.39 2.99,2.99l0,75.35z" fill="#ffffff" id="svg_8"/>
     <rect fill="#ffffff" height="48.37" id="svg_9" width="48.89" x="323.58" y="127"/>
     <path d="m117.65,228.88c-3.65,0 -6.64,2.92 -6.64,6.56l0,16.7c0,3.65 2.99,6.56 6.64,6.56l15.54,0l0,0.66c0,3.65 2.92,6.56 6.56,6.56l37.71,0l0,0.58c0,3.65 2.92,6.64 6.56,6.64l16.7,0c3.65,0 6.56,-2.99 6.56,-6.64l0,-16.12c0,-3.65 -2.99,-6.56 -6.56,-6.56l-8.39,0l0,-8.39c0,-3.65 -2.92,-6.56 -6.56,-6.56l-8.97,0c-3.65,0 -6.56,2.92 -6.56,6.56l0,8.39l-29.32,0l0,-8.39c0,-3.65 -2.99,-6.56 -6.64,-6.56l-16.63,0l0,0z" fill="#ffffff" id="svg_10"/>
     <path d="m240.19,196.57c0,3.65 2.99,6.56 6.64,6.56l23.85,0c3.65,0 6.56,-2.92 6.56,-6.56l0,-16.7c0,-3.65 -2.92,-6.56 -6.56,-6.56l-8.32,0l0,-51.49l1.09,0c3.65,0 6.56,-2.92 6.56,-6.56l0,-8.9c0,-3.65 -2.92,-6.64 -6.56,-6.64l-31.58,0c-3.65,0 -6.56,2.99 -6.56,6.64l0,8.9c0,3.65 2.92,6.64 6.56,6.64l8.32,0l0,23.63l-8.32,0c-3.65,0 -6.56,2.99 -6.56,6.64l0,1.24c0,3.57 2.92,6.56 6.56,6.56l8.32,0l0,36.62z" fill="#ffffff" id="svg_11"/>
     <path d="m259.23,220.57c0,-3.65 -2.92,-6.64 -6.56,-6.64l-16.7,0c-3.57,0 -6.56,2.99 -6.56,6.64l0,16.63c0,3.65 2.99,6.64 6.56,6.64l16.7,0c3.65,0 6.56,-2.99 6.56,-6.64l0,-16.63z" fill="#ffffff" id="svg_12"/>
     <path d="m377.61,295.77l-8.32,0c-3.65,0 -6.56,2.99 -6.56,6.64l0,31.07c0,3.65 2.92,6.56 6.56,6.56l31.58,0c3.65,0 6.56,-2.92 6.56,-6.56l0,-98.03c0,-3.57 -2.92,-6.56 -6.56,-6.56l-16.7,0c-3.57,0 -6.56,2.99 -6.56,6.56l0,60.32z" fill="#ffffff" id="svg_13"/>
     <path d="m302.99,271.63l1.17,0c3.65,0 6.56,-2.99 6.56,-6.64l0,-16.12c0,-3.65 -2.92,-6.56 -6.56,-6.56l-16.7,0c-3.65,0 -6.56,2.92 -6.56,6.56l0,8.32l-30.49,0c-3.65,0 -6.56,2.99 -6.56,6.64l0,38.29c0,3.57 2.92,6.56 6.56,6.56l46.02,0c3.65,0 6.56,-2.99 6.56,-6.56l0,-30.49z" fill="#ffffff" id="svg_14"/>
     <path d="m362.73,236.62l0,-8.32c0,-3.65 -2.99,-6.64 -6.64,-6.64l-1.75,0c-3.57,0 -6.56,2.99 -6.56,6.64l0,8.32l-15.54,0c-3.65,0 -6.56,2.92 -6.56,6.56l0,23.41c0,3.65 2.92,6.56 6.56,6.56l23.85,0c3.65,0 6.64,-2.92 6.64,-6.56l0,-29.98z" fill="#ffffff" id="svg_15"/>
     <path d="m318.45,317.94l-15.54,0c-3.65,0 -6.64,2.92 -6.64,6.56l0,8.97c0,3.65 2.99,6.56 6.64,6.56l15.54,0l0,57.69c0,3.65 2.92,6.56 6.56,6.56l16.19,0c3.65,0 6.56,-2.92 6.56,-6.56l0,-103.06c0,-3.65 -2.92,-6.56 -6.56,-6.56l-16.19,0c-3.65,0 -6.56,2.92 -6.56,6.56l0,23.27z" fill="#ffffff" id="svg_16"/>
     <path d="m244.35,397.74c0,3.65 2.92,6.56 6.56,6.56l23.85,0c3.65,0 6.64,-2.92 6.64,-6.56l0,-66.01c0,-3.65 -2.99,-6.64 -6.64,-6.64l-23.85,0c-3.65,0 -6.56,2.99 -6.56,6.64l0,66.01z" fill="#ffffff" id="svg_17"/>
     <path d="m357.55,397.74c0,3.65 2.92,6.56 6.56,6.56l21.88,0c3.57,0 6.56,-2.92 6.56,-6.56l0,-16.19c0,-3.65 -2.99,-6.56 -6.56,-6.56l-21.88,0c-3.65,0 -6.56,2.92 -6.56,6.56l0,16.19z" fill="#ffffff" id="svg_18"/>
    </g>
   </g>
  </g>
 </g>
</svg>