<?xml version="1.0"?>
<svg width="500" height="500" xmlns="http://www.w3.org/2000/svg" xmlns:svg="http://www.w3.org/2000/svg" version="1.2">
 <g class="layer">
  <title>Layer 1</title>
  <path class="s0" d="m499.1,92.39l0,315.63c0,50.51 -41.16,91.39 -91.55,91.39l-316.2,0c-50.39,0 -91.45,-41.08 -91.45,-91.39l0,-315.63c0,-50.51 40.96,-91.39 91.45,-91.39l316.2,0c50.39,0 91.55,40.98 91.55,91.39z" fill="#682fa0" id="svg_1" stroke="#682fa0"/>
  <g id="svg_5">
   <path d="m315.42,104.87c6.96,0.17 13.1,4.48 15.42,11.11l91.17,256.95c3.15,8.62 -1.49,18.07 -10.11,21.05c-8.62,3.15 -18.07,-1.49 -21.05,-10.11l-21.05,-59.35l-115.38,0l-23.21,59.84c-3.32,8.62 -12.93,12.76 -21.38,9.45c-8.62,-3.32 -12.76,-12.93 -9.45,-21.38l99.46,-256.95c2.49,-6.47 8.79,-10.78 15.58,-10.61zm-0.83,64.32l-47.41,122.17l90.84,0l-43.43,-122.17z" fill="#ffffff" id="svg_2"/>
   <path d="m178.49,395.14c-7.46,0 -13.76,-4.97 -15.91,-11.77c-14.75,7.79 -28.68,11.77 -42.11,11.77c-32.66,0 -58.02,-23.21 -58.02,-58.02c0,-15.25 5.3,-28.84 15.09,-38.96c9.78,-10.28 23.87,-16.91 40.95,-18.9c14.26,-1.82 28.51,-0.99 43.1,2.16c-0.83,-5.64 -2.82,-9.61 -5.64,-12.43c-3.81,-3.65 -9.95,-5.97 -19.73,-6.47c-15.75,-0.83 -25.69,1.49 -31.17,5.3c-7.46,5.3 -17.74,3.48 -23.04,-4.14c-5.3,-7.46 -3.48,-17.74 3.98,-23.04c11.94,-8.29 27.85,-11.77 46.91,-11.44l0.17,0l4.81,0.17c16.91,0.83 31,6.13 40.95,15.75c9.95,9.45 15.42,22.71 16.25,38.63l0,0.17l0,3.48l0,91.17c0,8.45 -6.3,15.25 -14.26,16.41l-0.17,0l-1.99,0.17l-0.17,0zm-56.03,-82.39c-9.61,1.16 -16.25,4.31 -20.56,8.45c-4.14,3.98 -6.3,9.61 -6.3,16.58c0,8.12 2.65,14.26 6.8,18.23c4.14,4.14 10.28,6.63 18.07,6.63c10.11,0 23.21,-4.81 39.12,-15.25l2.32,-1.66l0,-29.34l-1.99,-0.66c-12.93,-3.48 -25.36,-4.48 -37.46,-2.98z" fill="#ffffff" id="svg_3"/>
  </g>
 </g>
</svg>