<?xml version="1.0"?>
<svg width="500" height="500" xmlns="http://www.w3.org/2000/svg" xmlns:svg="http://www.w3.org/2000/svg" version="1.2">
 <g class="layer">
  <title>Layer 1</title>
  <path class="s0" d="m499.1,92.39l0,315.63c0,50.51 -41.16,91.39 -91.55,91.39l-316.2,0c-50.39,0 -91.45,-41.08 -91.45,-91.39l0,-315.63c0,-50.51 40.96,-91.39 91.45,-91.39l316.2,0c50.39,0 91.55,40.98 91.55,91.39z" fill="#682fa0" id="svg_5"/>
  <path d="m260.27,390.19c-10.73,2.7 -21.87,4.3 -33.39,4.3c-77.42,0 -140.43,-64.81 -140.43,-144.49s62.99,-144.49 140.43,-144.49c71.14,0 129.96,54.78 139.06,125.47c14.34,0.47 28.02,3.52 40.5,8.87c-5.18,-96.7 -83.73,-173.78 -179.56,-173.78c-99.18,0 -179.85,82.51 -179.85,183.93s80.67,183.93 179.84,183.93c20.15,0 39.51,-3.45 57.62,-9.73c-10.07,-9.66 -18.3,-21.18 -24.21,-34zm-33.41,-263.46c-10.89,0 -19.71,8.83 -19.71,19.71l0,103.56c0,1.62 0.25,3.17 0.61,4.65c1.79,9.03 9.76,15.85 19.32,15.85l49.49,0c15.89,-18.72 37.77,-32.19 62.7,-37.35c-2.62,-1.28 -5.51,-2.06 -8.63,-2.06l-84.06,0l0,-84.64c0,-10.9 -8.82,-19.72 -19.72,-19.72zm135.35,125.66c-50.13,0 -90.76,40.63 -90.76,90.76s40.63,90.76 90.76,90.76c50.13,0 90.75,-40.63 90.75,-90.76s-40.63,-90.76 -90.75,-90.76zm-70.75,59.98l96.16,0l-22.84,-24.92l15.94,-14.59l56.04,61.12l-145.28,0l0,-21.61l-0.01,0zm141.49,61.58l-96.16,0l22.84,24.92l-15.92,14.59l-56.04,-61.13l145.27,0l0,21.61z" fill="#ffffff" id="svg_6"/>
 </g>
</svg>