<?xml version="1.0"?>
<svg width="500" height="500" xmlns="http://www.w3.org/2000/svg" xmlns:svg="http://www.w3.org/2000/svg" version="1.2">
 <g class="layer">
  <title>Layer 1</title>
  <path class="s0" d="m499.1,92.39l0,315.63c0,50.51 -41.16,91.39 -91.55,91.39l-316.2,0c-50.39,0 -91.45,-41.08 -91.45,-91.39l0,-315.63c0,-50.51 40.96,-91.39 91.45,-91.39l316.2,0c50.39,0 91.55,40.98 91.55,91.39z" fill="#682fa0" id="svg_5"/>
  <path d="m207.16,343.97l-16.19,16.19a36.22,36.22 0 0 1 -51.02,0a35.17,35.17 0 0 1 0,-50.32l59.73,-59.03c12.36,-12.36 35.7,-30.47 52.59,-13.58a19.85,19.85 0 1 0 28.03,-28.03c-28.91,-28.56 -71.39,-23.33 -108.48,13.41l-59.73,59.2a74.53,74.53 0 0 0 -22.29,53.11a74.53,74.53 0 0 0 22.29,53.28c14.63,14.63 33.96,21.94 53.46,21.94s38.66,-7.49 53.46,-21.94l16.19,-16.02a19.85,19.85 0 0 0 0,-28.03a19.85,19.85 0 0 0 -28.03,-0.17zm180.75,-229.85c-31,-30.82 -74.18,-32.39 -102.91,-4l-20.2,20.02a19.85,19.85 0 1 0 28.03,28.21l20.2,-20.02c14.8,-14.8 34.3,-8.53 46.84,3.83c6.79,6.79 10.62,15.67 10.62,25.25s-3.83,18.28 -10.62,25.07l-63.73,63.04c-29.08,28.91 -42.66,15.5 -48.41,9.58a19.85,19.85 0 1 0 -28.03,28.03c13.41,13.41 28.56,19.85 44.58,19.85c19.68,0 40.22,-9.75 59.9,-29.25l63.73,-63.21a74.7,74.7 0 0 0 22.29,-53.11a74.7,74.7 0 0 0 -22.29,-53.28z" fill="#ffffff" id="svg_1"/>
 </g>
</svg>