<?xml version="1.0"?>
<svg width="500" height="500" xmlns="http://www.w3.org/2000/svg" xmlns:svg="http://www.w3.org/2000/svg" version="1.2">
 <!-- Uploaded to SVGRepo https://www.svgrepo.com -->
 <title>ic_fluent_code_24_filled</title>
 <desc>Created with Sketch.</desc>
 <g class="layer">
  <title>Layer 1</title>
  <path class="s0" d="m499.1,92.39l0,315.63c0,50.51 -41.16,91.39 -91.55,91.39l-316.2,0c-50.39,0 -91.45,-41.08 -91.45,-91.39l0,-315.63c0,-50.51 40.96,-91.39 91.45,-91.39l316.2,0c50.39,0 91.55,40.98 91.55,91.39z" fill="#686868" id="svg_5"/>
  <g id="svg_3">
   <path d="m216.06,166.58c20.24,0 36.72,-16.48 36.72,-36.71s-16.48,-36.71 -36.72,-36.71c-20.23,0 -36.71,16.48 -36.71,36.71s16.48,36.71 36.71,36.71zm-20.03,160.15c9.2,0 16.69,-7.49 16.69,-16.68l0,-120.12c0,-9.2 -7.49,-16.68 -16.69,-16.68s-16.68,7.49 -16.68,16.68l0,120.12c0,9.2 7.49,16.68 16.68,16.68z" fill="#ffffff" id="svg_1"/>
   <path d="m313.88,173.23l-60.11,0c-9,0 -16.33,7.04 -16.7,16.46c-0.42,11.02 -2.51,68.98 -2.51,126.47c0,48.43 -19.04,57.28 -56.51,57.28c-44.85,0 -61.53,-15.53 -61.53,-57.28l0,-126.23c0,-9.2 -7.49,-16.68 -16.68,-16.68s-16.68,7.49 -16.68,16.68l0,126.23c0,60.16 31.94,90.67 94.91,90.67c38.59,0 89.89,-9.4 89.91,-90.67c0,-43.5 1.21,-87.5 1.93,-109.53l43.99,0c30.99,0 69.58,0 69.58,80.25c0,72.12 -40.74,82.81 -84.72,83.64c-4.45,0.04 -8.63,1.82 -11.76,5.01c-3.13,3.19 -4.81,7.4 -4.77,11.85c0.08,9.11 7.57,16.53 17.12,16.53c77.96,-1.49 117.5,-40.85 117.5,-117.01c0,-113.66 -74.81,-113.66 -102.96,-113.66l-0.01,-0.01z" fill="#ffffff" id="svg_2"/>
  </g>
 </g>
</svg>