<svg version="1.2" xmlns="http://www.w3.org/2000/svg" viewBox="0 0 500 500" width="300" height="300">
	<title>uuid-svg</title>
	<style>
		.s0 { fill: #682fa0;stroke: #682fa0 } 
		.s1 { paint-order:stroke fill markers;stroke: #000000;stroke-width: 0;stroke-linejoin: round;;fill: #ffffff } 
	</style>
	<g id="Layer">
		<path id="svg_1" class="s0" d="m499.1 92.4v315.6c0 50.5-41.2 91.4-91.6 91.4h-316.1c-50.4 0-91.5-41.1-91.5-91.4v-315.6c0-50.5 41-91.4 91.5-91.4h316.1c50.4 0 91.6 41 91.6 91.4z"/>
		<path id="UUID" class="s1" aria-label="UUID"  d="m98.9 313.3q-11.6 0-20.9-3.4-9.2-3.4-15.7-10.2-6.5-6.9-9.9-17.2-3.5-10.3-3.5-24.2v-57.8h35v58q0 7.7 0.8 13.7 0.8 6.1 2.7 10.3 1.9 4.1 5 6.3 3.1 2.2 7.8 2.2 5.2 0 8.3-2.2 3.2-2.2 4.9-6.3 1.8-4.2 2.4-10.3 0.6-6 0.6-13.7v-58h29.3v57.8q0 13.9-2.8 24.3-2.7 10.3-8.5 17.1-5.7 6.8-14.5 10.2-8.8 3.4-21 3.4zm123.4 0q-11.6 0-20.9-3.4-9.3-3.4-15.7-10.2-6.5-6.9-10-17.2-3.4-10.3-3.4-24.2v-57.8h35v58q0 7.7 0.8 13.7 0.8 6.1 2.6 10.3 1.9 4.1 5 6.3 3.2 2.2 7.9 2.2 5.1 0 8.2-2.2 3.2-2.2 5-6.3 1.8-4.2 2.4-10.3 0.6-6 0.6-13.7v-58h29.2v57.8q0 13.9-2.7 24.3-2.7 10.3-8.5 17.1-5.7 6.8-14.6 10.2-8.7 3.4-20.9 3.4zm73.4-2.3v-110.5h35v110.5zm99.8 0h-38.1v-110.5h38.4q14.2 0 25.6 3.4 11.3 3.3 19.1 10.1 7.9 6.7 12 16.9 4.3 10.2 4.3 23.9 0 10.5-2.2 18.8-2.1 8.2-6.1 14.4-3.9 6.3-9.6 10.7-5.5 4.3-12.3 7.1-6.8 2.7-14.7 3.9-7.8 1.3-16.4 1.3zm-3.1-87.7v62.7h2.3q6.1 0 11.1-1.1 5-1.2 8.5-4.5 3.6-3.4 5.5-9.5 2-6.1 2-16.1 0-9-1.8-15.1-1.7-6-5-9.6-3.4-3.7-8.3-5.2-4.9-1.6-11.3-1.6z"/>
	</g>
</svg>